<?xml version="1.0" encoding="us-ascii" standalone="no"?><svg xmlns="http://www.w3.org/2000/svg" xmlns:xlink="http://www.w3.org/1999/xlink" contentStyleType="text/css" height="575px" preserveAspectRatio="none" style="width:424px;height:575px;background:#FFFFFF;" version="1.1" viewBox="0 0 424 575" width="424px" zoomAndPan="magnify"><defs/><g><!--class Epoca--><g id="elem_Epoca"><rect codeLine="3" fill="#F1F1F1" height="107.4844" id="Epoca" rx="2.5" ry="2.5" style="stroke:#181818;stroke-width:0.5;" width="189" x="8" y="7"/><text fill="#000000" font-family="sans-serif" font-size="14" lengthAdjust="spacing" textLength="43" x="81" y="24.9951">Epoca</text><line style="stroke:#181818;stroke-width:0.5;" x1="9" x2="196" y1="33.2969" y2="33.2969"/><ellipse cx="19" cy="46.9453" fill="none" rx="3" ry="3" style="stroke:#038048;stroke-width:1.0;"/><text fill="#000000" font-family="sans-serif" font-size="14" lengthAdjust="spacing" textLength="156" x="28" y="50.292">nombre_&#233;poca : string</text><text fill="#000000" font-family="sans-serif" font-size="14" lengthAdjust="spacing" textLength="163" x="28" y="66.5889">a&#241;o_comienzo : integer</text><text fill="#000000" font-family="sans-serif" font-size="14" lengthAdjust="spacing" textLength="122" x="28" y="82.8857">a&#241;o_final : integer</text><text fill="#000000" font-family="sans-serif" font-size="14" lengthAdjust="spacing" textLength="151" x="28" y="99.1826">caracter&#237;sticas : string</text><line style="stroke:#181818;stroke-width:0.5;" x1="9" x2="196" y1="106.4844" y2="106.4844"/></g><!--class Genero--><g id="elem_Genero"><rect codeLine="10" fill="#F1F1F1" height="91.1875" id="Genero" rx="2.5" ry="2.5" style="stroke:#181818;stroke-width:0.5;" width="189" x="8" y="174.49"/><text fill="#000000" font-family="sans-serif" font-size="14" lengthAdjust="spacing" textLength="52" x="76.5" y="192.4851">Genero</text><line style="stroke:#181818;stroke-width:0.5;" x1="9" x2="196" y1="200.7869" y2="200.7869"/><ellipse cx="19" cy="214.4353" fill="none" rx="3" ry="3" style="stroke:#038048;stroke-width:1.0;"/><text fill="#000000" font-family="sans-serif" font-size="14" lengthAdjust="spacing" textLength="163" x="28" y="217.782">nombre_g&#233;nero : string</text><text fill="#000000" font-family="sans-serif" font-size="14" lengthAdjust="spacing" textLength="151" x="28" y="234.0789">caracter&#237;sticas : string</text><text fill="#000000" font-family="sans-serif" font-size="14" lengthAdjust="spacing" textLength="96" x="28" y="250.3757">origen : string</text><line style="stroke:#181818;stroke-width:0.5;" x1="9" x2="196" y1="257.6775" y2="257.6775"/></g><!--class Artista--><g id="elem_Artista"><rect codeLine="16" fill="#F1F1F1" height="107.4844" id="Artista" rx="2.5" ry="2.5" style="stroke:#181818;stroke-width:0.5;" width="191" x="7" y="325.67"/><text fill="#000000" font-family="sans-serif" font-size="14" lengthAdjust="spacing" textLength="43" x="81" y="343.6651">Artista</text><line style="stroke:#181818;stroke-width:0.5;" x1="8" x2="197" y1="351.9669" y2="351.9669"/><ellipse cx="18" cy="365.6153" fill="none" rx="3" ry="3" style="stroke:#038048;stroke-width:1.0;"/><text fill="#000000" font-family="sans-serif" font-size="14" lengthAdjust="spacing" textLength="155" x="27" y="368.962">nombre_artista : string</text><text fill="#000000" font-family="sans-serif" font-size="14" lengthAdjust="spacing" textLength="165" x="27" y="385.2589">fecha_nacimiento : date</text><text fill="#000000" font-family="sans-serif" font-size="14" lengthAdjust="spacing" textLength="139" x="27" y="401.5557">fecha_muerte : date</text><text fill="#000000" font-family="sans-serif" font-size="14" lengthAdjust="spacing" textLength="136" x="27" y="417.8526">historia_vida : string</text><line style="stroke:#181818;stroke-width:0.5;" x1="8" x2="197" y1="425.1544" y2="425.1544"/></g><!--class Estilo--><g id="elem_Estilo"><rect codeLine="23" fill="#F1F1F1" height="58.5938" id="Estilo" rx="2.5" ry="2.5" style="stroke:#181818;stroke-width:0.5;" width="176" x="233.5" y="350.12"/><text fill="#000000" font-family="sans-serif" font-size="14" lengthAdjust="spacing" textLength="37" x="303" y="368.1151">Estilo</text><line style="stroke:#181818;stroke-width:0.5;" x1="234.5" x2="408.5" y1="376.4169" y2="376.4169"/><ellipse cx="244.5" cy="390.0653" fill="none" rx="3" ry="3" style="stroke:#038048;stroke-width:1.0;"/><text fill="#000000" font-family="sans-serif" font-size="14" lengthAdjust="spacing" textLength="150" x="253.5" y="393.412">nombre_estilo : string</text><line style="stroke:#181818;stroke-width:0.5;" x1="234.5" x2="408.5" y1="400.7137" y2="400.7137"/></g><!--class Tecnica--><g id="elem_Tecnica"><rect codeLine="27" fill="#F1F1F1" height="58.5938" id="Tecnica" rx="2.5" ry="2.5" style="stroke:#181818;stroke-width:0.5;" width="189" x="228" y="501.31"/><text fill="#000000" font-family="sans-serif" font-size="14" lengthAdjust="spacing" textLength="54" x="295.5" y="519.3051">Tecnica</text><line style="stroke:#181818;stroke-width:0.5;" x1="229" x2="416" y1="527.6069" y2="527.6069"/><ellipse cx="239" cy="541.2553" fill="none" rx="3" ry="3" style="stroke:#038048;stroke-width:1.0;"/><text fill="#000000" font-family="sans-serif" font-size="14" lengthAdjust="spacing" textLength="163" x="248" y="544.602">nombre_t&#233;cnica : string</text><line style="stroke:#181818;stroke-width:0.5;" x1="229" x2="416" y1="551.9038" y2="551.9038"/></g><!--class Obra--><g id="elem_Obra"><rect codeLine="31" fill="#F1F1F1" height="74.8906" id="Obra" rx="2.5" ry="2.5" style="stroke:#181818;stroke-width:0.5;" width="180" x="12.5" y="493.16"/><text fill="#000000" font-family="sans-serif" font-size="14" lengthAdjust="spacing" textLength="33" x="86" y="511.1551">Obra</text><line style="stroke:#181818;stroke-width:0.5;" x1="13.5" x2="191.5" y1="519.4569" y2="519.4569"/><ellipse cx="23.5" cy="533.1053" fill="none" rx="3" ry="3" style="stroke:#038048;stroke-width:1.0;"/><text fill="#000000" font-family="sans-serif" font-size="14" lengthAdjust="spacing" textLength="144" x="32.5" y="536.452">nombre_obra : string</text><text fill="#000000" font-family="sans-serif" font-size="14" lengthAdjust="spacing" textLength="154" x="32.5" y="552.7489">a&#241;o_creaci&#243;n : integer</text><line style="stroke:#181818;stroke-width:0.5;" x1="13.5" x2="191.5" y1="560.0506" y2="560.0506"/></g><!--link Epoca to Genero--><g id="link_Epoca_Genero"><path codeLine="36" d="M102.5,122.57 C102.5,141.86 102.5,137.47 102.5,156.01 " fill="none" id="Epoca-Genero" style="stroke:#181818;stroke-width:1.0;"/><line style="stroke:#181818;stroke-width:1.0;" x1="98.5" x2="106.5" y1="118.57" y2="118.57"/><line style="stroke:#181818;stroke-width:1.0;" x1="98.5" x2="106.5" y1="121.57" y2="121.57"/><line style="stroke:#181818;stroke-width:1.0;" x1="102.5" x2="102.5" y1="122.57" y2="114.57"/><line style="stroke:#181818;stroke-width:1.0;" x1="102.5" x2="108.5" y1="166.01" y2="174.01"/><line style="stroke:#181818;stroke-width:1.0;" x1="102.5" x2="96.5" y1="166.01" y2="174.01"/><line style="stroke:#181818;stroke-width:1.0;" x1="102.5" x2="102.5" y1="166.01" y2="174.01"/><ellipse cx="102.5" cy="160.01" fill="none" rx="4" ry="4" style="stroke:#181818;stroke-width:1.0;"/></g><!--link Genero to Artista--><g id="link_Genero_Artista"><path codeLine="37" d="M102.5,274.17 C102.5,292.6 102.5,288.06 102.5,307.25 " fill="none" id="Genero-Artista" style="stroke:#181818;stroke-width:1.0;"/><line style="stroke:#181818;stroke-width:1.0;" x1="98.5" x2="106.5" y1="270.17" y2="270.17"/><line style="stroke:#181818;stroke-width:1.0;" x1="98.5" x2="106.5" y1="273.17" y2="273.17"/><line style="stroke:#181818;stroke-width:1.0;" x1="102.5" x2="102.5" y1="274.17" y2="266.17"/><line style="stroke:#181818;stroke-width:1.0;" x1="102.5" x2="108.5" y1="317.25" y2="325.25"/><line style="stroke:#181818;stroke-width:1.0;" x1="102.5" x2="96.5" y1="317.25" y2="325.25"/><line style="stroke:#181818;stroke-width:1.0;" x1="102.5" x2="102.5" y1="317.25" y2="325.25"/><ellipse cx="102.5" cy="311.25" fill="none" rx="4" ry="4" style="stroke:#181818;stroke-width:1.0;"/></g><!--link Estilo to Tecnica--><g id="link_Estilo_Tecnica"><path codeLine="38" d="M321.7445,417.1798 C321.9245,443.5998 322.0754,466.5402 322.2554,492.9302 " fill="none" id="Estilo-Tecnica" style="stroke:#181818;stroke-width:1.0;"/><line style="stroke:#181818;stroke-width:1.0;" x1="321.7445" x2="315.6901" y1="417.1798" y2="409.2209"/><line style="stroke:#181818;stroke-width:1.0;" x1="321.7445" x2="327.6899" y1="417.1798" y2="409.1391"/><line style="stroke:#181818;stroke-width:1.0;" x1="321.7445" x2="321.69" y1="417.1798" y2="409.18"/><line style="stroke:#181818;stroke-width:1.0;" x1="317.7582" x2="325.758" y1="419.207" y2="419.1525"/><line style="stroke:#181818;stroke-width:1.0;" x1="322.2554" x2="330.3098" y1="492.9302" y2="500.93"/><line style="stroke:#181818;stroke-width:1.0;" x1="322.2554" x2="314.3102" y1="492.9302" y2="500.93"/><line style="stroke:#181818;stroke-width:1.0;" x1="322.2554" x2="322.31" y1="492.9302" y2="500.93"/></g><!--link Estilo to Obra--><g id="link_Estilo_Obra"><path codeLine="39" d="M272.6585,413.6842 C237.7385,437.4742 209.3864,456.7863 171.5264,482.5763 " fill="none" id="Estilo-Obra" style="stroke:#181818;stroke-width:1.0;"/><line style="stroke:#181818;stroke-width:1.0;" x1="273.7121" x2="278.2164" y1="408.1264" y2="414.7379"/><line style="stroke:#181818;stroke-width:1.0;" x1="271.2328" x2="275.7371" y1="409.8154" y2="416.4269"/><line style="stroke:#181818;stroke-width:1.0;" x1="272.6585" x2="279.27" y1="413.6842" y2="409.18"/><line style="stroke:#181818;stroke-width:1.0;" x1="163.2617" x2="160.0279" y1="488.2061" y2="497.6688"/><line style="stroke:#181818;stroke-width:1.0;" x1="163.2617" x2="153.2721" y1="488.2061" y2="487.7512"/><line style="stroke:#181818;stroke-width:1.0;" x1="163.2617" x2="156.65" y1="488.2061" y2="492.71"/><ellipse cx="168.2205" cy="484.8282" fill="none" rx="4" ry="4" style="stroke:#181818;stroke-width:1.0;"/></g><!--link Artista to Obra--><g id="link_Artista_Obra"><path codeLine="40" d="M102.5,441.44 C102.5,461.03 102.5,456.8 102.5,474.67 " fill="none" id="Artista-Obra" style="stroke:#181818;stroke-width:1.0;"/><line style="stroke:#181818;stroke-width:1.0;" x1="98.5" x2="106.5" y1="437.44" y2="437.44"/><line style="stroke:#181818;stroke-width:1.0;" x1="98.5" x2="106.5" y1="440.44" y2="440.44"/><line style="stroke:#181818;stroke-width:1.0;" x1="102.5" x2="102.5" y1="441.44" y2="433.44"/><line style="stroke:#181818;stroke-width:1.0;" x1="102.5" x2="108.5" y1="484.67" y2="492.67"/><line style="stroke:#181818;stroke-width:1.0;" x1="102.5" x2="96.5" y1="484.67" y2="492.67"/><line style="stroke:#181818;stroke-width:1.0;" x1="102.5" x2="102.5" y1="484.67" y2="492.67"/><ellipse cx="102.5" cy="478.67" fill="none" rx="4" ry="4" style="stroke:#181818;stroke-width:1.0;"/></g><!--SRC=[TP8nRiCm34LtdKB8MkG2tJe47RjqDnY5SOZQL20p0L8d1_BGeUWHTB5AbfnOgBiO7uyc-UdlxeFu20vQtScbmV1qPEJKDaeX2yb5hpP7Qs2beTEZqhtI-ebjktLO-M54psCVrw42_jjMnhQ4_6b3WLYmHZTLziJG5DY4xKRG-QzEo8Gjzs6tXuTNP7HsD95auQBsmyXcDlwVghLrL2ClxdbnGfsaQxCkDa5cisbxD0Ue60p5coMws87WlTAUq0a-w24C20wWEjCE5ariWkKc7PjaOG4JMcfyHyEKiygwQ1K_9BZK_BPrgJEAeir6y2TYX-5a_yEpCCEqz8jSh-krxNDKAYUMOVwiAfzs2xIVt4umlngTg2c66Vi5]--></g></svg>